<?xml version="1.0" encoding="UTF-8"?>
<svg width="110px" height="74px" viewBox="0 0 110 74" version="1.1" xmlns="http://www.w3.org/2000/svg" xmlns:xlink="http://www.w3.org/1999/xlink">
    <title>JV</title>
    <defs>
        <polygon id="path-1" points="0 0 109.347886 0 109.347886 74 0 74"></polygon>
    </defs>
    <g id="Symbols" stroke="none" stroke-width="1" fill="none" fill-rule="evenodd">
        <g id="Desktop-Nav" transform="translate(-43.000000, -31.000000)">
            <g id="JV" transform="translate(43.000000, 31.000000)">
                <g id="Group-4" transform="translate(0.000000, 0.000000)">
                    <mask id="mask-2" fill="white">
                        <use xlink:href="#path-1"></use>
                    </mask>
                    <g id="Clip-2"></g>
                    <path d="M109.354514,23.5247661 L109.354514,23.4234488 C109.354514,23.4572791 109.354514,23.4907623 109.354514,23.5247661 M9.14471937,0.00690801768 L8.81318304,0.00690801768 C8.85421305,0.00670801768 8.89480933,0.00670801768 8.93609957,0.00660801768 L9.019374,0.00660801768 C9.06092447,0.00670801768 9.10290866,0.00670801768 9.14471937,0.00690801768" id="Fill-1" fill="#FFFFFE" mask="url(#mask-2)"></path>
                    <path d="M76.0632701,74 L76.0632701,74 L81.9384546,54.6939512 C59.8951926,58.4216096 40.6778832,59.694147 13.0719762,59.7149656 C9.9327904,59.7149656 8.4311616,58.3981887 7.50056985,56.6494257 C2.06812776,46.3645999 -1.80734274,11.4822426 0.867761555,2.64804011 C1.32629138,1.14085968 2.02206659,0.703321951 3.25244628,0.429557265 C4.53678087,0.141826762 6.43292227,0.0063323264 8.81318304,0.000260232592 L9.14471937,0.000260232592 C31.9623467,0.0543886117 97.5550124,11.4744357 107.017069,15.2727906 C108.077951,15.6979239 108.437072,16.1564537 108.771037,17.3504008 C109.167458,18.7766489 109.345284,20.9119441 109.347886,23.4234488 L109.347886,23.5247661 C109.340946,31.2795238 107.679795,42.5547948 105.627427,47.6999401 C105.014146,49.2584731 103.489183,50.5567735 101.490597,50.9714108 C97.5697589,51.7871532 93.8206747,52.5354954 90.1973696,53.2133145 L76.0632701,74" id="Fill-3" fill="#762E6C" mask="url(#mask-2)"></path>
                </g>
                <path d="M100.306538,24.0091457 L100.949313,24.0091457 C101.237304,24.0091457 101.47238,24.2436152 101.47238,24.531606 C101.47238,24.8197702 101.237304,25.0542397 100.949313,25.0542397 L100.306538,25.0542397 L100.306538,24.0091457 Z M101.173113,25.4162233 C101.570401,25.3160337 101.864464,24.9596018 101.864464,24.531606 C101.864464,24.0261475 101.455031,23.6162812 100.949313,23.6162812 L99.9144546,23.6162812 L99.9144546,26.624223 L100.24842,26.624223 L100.24842,25.4535233 L100.761945,25.4535233 L101.528764,26.624223 L101.985039,26.624223 L101.199136,25.4535233 L101.173113,25.4162233 L101.173113,25.4162233 Z" id="Fill-5" fill="#FFFFFE"></path>
                <path d="M100.776692,27.3249426 C99.5709475,27.3249426 98.6037497,26.3474222 98.6037497,25.1520005 C98.6037497,23.9316831 99.5709475,22.9776704 100.776692,22.9776704 C101.985039,22.9776704 102.951369,23.9316831 102.951369,25.1520005 C102.951369,26.3474222 101.985039,27.3249426 100.776692,27.3249426 Z M100.776692,22.5909648 C99.3653638,22.5909648 98.2177381,23.7261861 98.2177381,25.1520005 C98.2177381,26.5639357 99.3653638,27.7114747 100.776692,27.7114747 C102.202766,27.7114747 103.336513,26.5639357 103.336513,25.1520005 C103.336513,23.7261861 102.202766,22.5909648 100.776692,22.5909648 L100.776692,22.5909648 Z" id="Fill-6" fill="#FFFFFE"></path>
                <path d="M85.7326457,33.8131483 C85.6632504,34.7120784 85.4802201,35.5914911 85.146255,36.34738 C84.832241,37.0609378 84.0706269,37.9566584 83.2187989,37.9612754 C82.1518453,37.9671544 81.8968173,36.6401417 81.8577825,35.817373 C81.7632313,33.8168783 82.1674592,31.7587855 83.2361477,30.0652785 C83.680278,29.362824 84.5017456,28.7623807 85.1557968,29.6286082 C85.3830666,29.9307383 85.4810876,30.3097237 85.5522178,30.6815093 C85.7343806,31.6350883 85.8150527,32.7381275 85.7326457,33.8131483 Z M84.8972991,27.2006382 C84.0255199,26.8386546 83.0539849,26.8692753 82.1717964,27.5791898 C80.9816661,28.5371927 80.265159,30.368623 79.8730752,31.7993818 C79.3638868,33.6598713 79.0117053,36.3444307 80.3536381,37.939483 C81.319101,39.086675 83.0591896,39.4419793 84.4566386,38.9006955 C86.6686156,38.0444435 87.3946646,35.5894092 87.6089227,33.4441385 C87.7164855,32.36053 87.7277623,31.2515922 87.4493134,30.1988646 C87.1196855,28.9542588 86.1030435,27.7015859 84.8972991,27.2006382 L84.8972991,27.2006382 Z" id="Fill-7" fill="#FFFFFE"></path>
                <path d="M48.3883147,51.6333557 C47.4985794,51.7814281 46.3555511,51.2396238 46.0748469,50.3203088 C45.9564411,49.9284853 45.9004043,49.5270331 45.9020172,49.1249738 C45.9047415,48.4313672 46.0825671,47.7252694 46.4321463,47.0223812 C47.7939434,44.2651301 51.7000346,42.0371054 53.2691504,41.5999147 C53.5298167,44.9943018 53.3058432,50.8105003 48.3883147,51.6333557 Z M53.4971142,27.5468342 C53.1955046,27.625598 52.9996362,27.9174055 53.0467383,28.2255208 C53.1316608,28.7804235 53.2387032,29.7360843 53.2063476,30.8867461 C53.2467704,33.9988676 51.7482644,38.2995582 50.7619829,38.3371184 C49.5593613,38.3324342 49.8187265,34.8047212 49.952486,33.9260025 C50.1259744,32.925148 50.6759326,29.6620048 50.6790554,28.8580595 C50.6810505,28.3677813 50.6489552,27.8772429 50.4572505,27.5978398 C50.2725721,27.3251161 49.4419964,27.2057561 47.9251006,27.7312524 C47.8611702,27.7533722 47.8241304,27.8257168 47.841913,27.8910352 C48.2843084,29.5169685 48.1122079,30.3920439 47.9028074,31.881355 C47.7386874,33.0778178 47.6338136,33.9404888 47.5842827,34.5950605 C47.5009215,35.8338544 47.6788339,37.7698981 48.6783873,38.9423327 C49.1147973,39.4423262 49.6429827,39.7102791 50.2555702,39.7387312 C51.5989776,39.8016207 52.5010305,38.5635208 52.9952122,37.5793211 C53.0259197,38.4139738 53.1946371,40.0086791 53.2011429,40.2430619 C49.7936574,41.2053153 46.3142609,43.9018454 44.9770124,46.88307 C44.5721772,47.7922359 44.36269,48.6805832 44.3593529,49.5103782 C44.3573986,50.0135813 44.4286155,50.5016909 44.5777288,50.9505921 C44.6216214,51.0787133 45.6246445,54.0536056 49.2636503,53.3662446 C52.4685015,52.8778747 54.8570897,49.6658238 55.1835948,46.1958825 C55.4130332,43.6950473 55.4069611,41.7543193 55.2563732,39.6204988 C55.1803853,38.5319459 54.9092229,36.3712347 54.9711583,35.2707111 C55.005856,33.6799092 55.6841956,30.3128465 55.6841956,30.3128465 C55.7409263,29.9216301 55.9643794,28.104079 55.5986658,27.5293987 C55.353093,27.1341054 54.1973133,27.3639775 53.4971142,27.5468342 L53.4971142,27.5468342 Z" id="Fill-8" fill="#FFFFFE"></path>
                <path d="M66.6825791,21.8010721 C66.2152014,21.7861521 65.100018,22.1652243 65.0063342,24.1551361 C64.9612273,25.114527 65.5784122,26.4761506 66.6852682,26.5144916 C67.6266162,26.5515313 68.3845003,25.3265298 68.3583035,24.1522736 C68.331673,22.8537129 67.6056241,21.8152114 66.6825791,21.8010721" id="Fill-9" fill="#FFFFFE"></path>
                <path d="M65.4213185,26.9664288 C65.1897115,26.8979009 64.9562828,27.06471 64.9398014,27.3056854 C64.8004035,29.3395766 64.2278051,37.8164798 64.3412665,38.1356984 C64.5553512,38.7288552 65.6158857,39.035496 66.3614521,39.0359297 C66.4378737,38.1365658 67.3295173,28.3793183 67.3953562,28.2855478 C66.692121,27.4556661 65.9030957,27.1089495 65.4213185,26.9664288" id="Fill-10" fill="#FFFFFE"></path>
                <path d="M61.5781168,27.9200945 C61.5705701,29.8455555 60.9907719,32.80067 59.4444698,35.3093122 C59.6395575,34.1389595 59.9016985,32.3951409 59.9055152,31.4324538 C59.9137559,29.3077415 59.4720545,27.9352748 58.3919157,26.9950544 C58.3704899,26.9764044 58.3441197,26.9653879 58.3156676,26.9650778 C57.7259805,26.9611374 56.8201976,27.1976021 56.4433808,27.3039505 C56.3633159,27.3265907 56.3417166,27.4239177 56.3994882,27.4837712 C57.2621593,28.3768895 57.7244191,29.590354 57.7778535,31.8804876 C57.8334566,34.2834753 56.9027781,37.4511132 56.8607071,37.6284183 C57.2409937,38.4151882 58.9152435,39.2613778 58.9152435,39.2613778 C63.623545,33.9048369 64.0349727,28.89588 64.0678488,28.2996871 C64.0698439,28.2625606 64.0518878,28.2263883 64.0221346,28.2042685 C62.9928279,27.4406593 62.0395959,27.0865695 61.6830773,26.971113 C61.6101254,26.9474318 61.538388,27.0045963 61.541771,27.0812781 L61.5781168,27.9200945" id="Fill-11" fill="#FFFFFE"></path>
                <path d="M45.9150641,38.8471743 C46.0923692,28.1246373 46.3593679,20.8937278 47.5698832,14.44794 C47.3276934,13.9968702 46.4548732,13.0637628 45.4096924,12.6792258 C45.2052363,12.6039319 44.9748438,12.7155716 44.9135156,12.9247119 C43.4627189,17.8763309 43.7388257,29.6313841 43.8410971,37.925257 C44.2330074,38.787928 45.4978245,38.9052062 45.9150641,38.8471743" id="Fill-12" fill="#FFFFFE"></path>
                <path d="M40.2373094,13.1662945 C38.7839971,18.1180002 39.0601907,29.8730534 39.1623753,38.1670131 C39.559924,39.0293371 40.8220521,39.1467888 41.2366026,39.0888436 C41.4166835,28.3662199 41.6862845,21.1352237 42.896713,14.6893491 C42.65461,14.238366 41.7775394,13.3057792 40.7334862,12.9209819 C40.5290302,12.8456879 40.2986376,12.957241 40.2373094,13.1662945" id="Fill-13" fill="#FFFFFE"></path>
                <path d="M25.5299175,33.746789 C25.399541,33.7073204 17.0805122,31.8642664 15.5345572,22.4523475 C14.5023012,16.185513 16.1401184,12.3189772 17.3724065,12.0102546 C20.0200129,11.3503047 22.1318871,16.8233431 23.6833071,21.6682667 C25.1059119,26.1367206 25.4544501,31.0258838 25.5299175,33.746789 Z M14.2786747,50.0180053 C13.5586111,50.1272162 12.5103075,50.0450695 11.9411788,49.4611075 C11.6369669,49.1446647 11.4847308,48.7161484 11.4868766,48.168272 C11.4875934,47.9883646 11.5092794,47.8028187 11.538599,47.5946326 C12.5086593,43.8398233 17.5982884,39.0263878 25.478218,36.9420115 C25.2826098,40.2924194 22.9641977,48.7269914 14.2786747,50.0180053 Z M22.1357906,11.2154175 C20.4381199,9.75082847 18.6173592,9.23487398 16.8779645,9.73686265 C15.1021373,10.2411934 11.2770652,13.5303599 12.4256451,22.9309153 C13.7467593,33.7436662 23.740298,34.6503166 25.5425822,34.7258708 C25.5455315,35.1752057 25.5460519,35.6204637 25.5457917,35.6874302 C22.5776655,36.2080689 9.74013154,41.2990858 9.45344196,48.6143974 C9.30285404,52.5103396 14.4723745,52.4081549 16.4255936,51.9360062 C21.811801,50.634583 27.7748573,45.2662449 28.9345405,36.2225551 C30.1533832,26.7039409 27.103891,15.4919932 22.1357906,11.2154175 L22.1357906,11.2154175 Z" id="Fill-14" fill="#FFFFFE"></path>
                <path d="M77.2247749,27.0124032 C76.9931679,26.9436151 76.759826,27.1102507 76.7433446,27.3512261 C76.6019515,29.3849438 76.0216329,37.8620205 76.139605,38.1812391 C76.3529957,38.7743959 77.4060703,39.0810367 78.1624797,39.0815571 C78.2388145,38.1821065 79.1227379,28.4247723 79.1930007,28.3310885 C78.4912402,27.5019875 77.7053377,27.1551842 77.2247749,27.0124032" id="Fill-15" fill="#FFFFFE"></path>
                <path d="M78.4808309,26.5600323 C79.4298124,26.5969853 80.1810171,25.3720705 80.1558613,24.1978143 C80.1359101,22.8992536 79.4011868,21.8607521 78.4834332,21.8466128 C78.0115448,21.8316928 76.8986167,22.2108517 76.8023306,24.2006768 C76.7615609,25.1600677 77.3748423,26.5216913 78.4808309,26.5600323" id="Fill-16" fill="#FFFFFE"></path>
                <path d="M72.7192813,27.1547505 C72.6923906,27.1460761 72.6663673,27.1375751 72.6394766,27.1294212 C71.3513253,26.7351688 70.5359298,27.2372442 69.7448228,28.2331543 C68.877988,29.3248301 68.1176751,30.8400777 68.3629009,32.2924358 C68.4992628,33.1009785 68.9906687,33.7886864 69.6251158,34.2896342 C70.3381531,34.852257 71.2099322,35.0327717 71.9741486,35.4980676 C72.1190114,35.5861997 72.2612719,35.686476 72.357558,35.8257872 C72.5119626,36.0498474 72.5258417,36.3479005 72.4564464,36.6114294 C72.2491277,37.4046183 71.6080881,37.9795588 70.7727415,37.9697568 C70.0354158,37.9610823 69.5364632,37.3065974 69.509052,36.6025815 C69.4856311,36.0004032 69.6424646,35.2967343 68.7902896,35.2985559 C68.365937,35.2994234 67.9820939,35.6116158 67.8152848,36.0017912 C67.5343204,36.6591387 67.7573397,37.4800858 68.19774,38.0122614 C68.732518,38.6586792 69.6494041,39.0326334 70.7137554,39.0496353 C72.9743092,39.0740104 74.6823025,38.0579756 74.8497188,36.5877482 C75.0136653,35.1588978 73.9692652,34.737321 72.7531115,34.2454814 L72.3532208,34.0897756 C71.034709,33.544328 70.630481,32.968867 70.7623322,31.8404985 C70.9488322,30.2025946 71.7781067,28.8839093 72.6073813,28.8920633 C72.8320487,28.8985691 72.9257325,28.9718679 72.9769115,29.0313744 C73.0610534,29.1288749 73.1590744,29.356058 73.1573395,29.8515408 L73.1209069,30.4281295 L72.9812488,31.4157122 C72.8823604,32.0801727 72.738365,32.9911603 73.5234,33.3235641 C73.8521605,33.4627885 74.2416419,33.3866271 74.5487164,33.2039438 C75.115156,32.8669426 75.1463839,32.3103918 75.2652235,31.7276443 L75.3615095,30.4889372 C75.4872886,28.8693363 74.1427536,27.6203933 72.7192813,27.1547505" id="Fill-17" fill="#FFFFFE"></path>
                <path d="M32.6844922,33.6003648 C32.6484066,33.1574489 32.6437224,32.5144142 32.7783494,31.5533752 C32.9966845,30.0041239 33.9648365,28.5016276 34.5249438,28.5037939 C34.9329018,28.5054444 34.7876052,30.2205506 34.5226017,31.1876617 C34.1578424,32.5351461 33.348519,33.4935827 32.7727978,34.2074007 C32.7288185,33.9581846 32.7011471,33.7476564 32.6844922,33.6003648 Z M33.2679336,35.8945753 C33.9267558,35.425029 35.7444805,34.0244572 36.4699222,32.565333 C36.9602871,31.5669941 37.2445479,30.4015858 37.2485381,29.3844233 C37.25435,27.9187934 36.6075852,26.3448199 35.1723157,26.3391815 C31.7061044,26.3391815 30.4139628,30.5624095 30.212456,32.8019712 C30.0302932,34.8379443 30.3285198,36.3995133 31.4007648,37.6025686 C32.1612512,38.4543966 33.105722,38.8738048 34.0273791,38.8774627 C35.613757,38.8836069 37.0963888,36.949645 38.1925752,35.1753792 C38.2169503,35.1358238 38.2077554,35.0847315 38.1716699,35.0555854 L37.6379328,34.6239463 C37.597163,34.5908968 37.5359216,34.6013928 37.5052142,34.644071 C35.1161055,37.9797323 33.8885016,37.2265325 33.2679336,35.8945753 L33.2679336,35.8945753 Z" id="Fill-18" fill="#FFFFFE"></path>
                <path d="M99.3679661,35.5592223 L98.794587,35.0885482 C98.7095777,35.0187192 98.6540614,35.0406654 98.6193637,35.0761438 L98.5759916,35.1484885 L98.4085753,35.4271108 C98.0980311,35.9201649 97.171603,37.3801564 96.4455541,36.6234868 C96.1801169,36.3465126 96.0751564,35.9437593 95.9927494,35.5828167 C95.6128098,33.9320746 95.9381005,32.2691016 96.5444425,30.716207 C96.7621704,30.1593092 97.0137286,29.6157701 97.2939124,29.0878449 C97.5801682,28.5507248 97.4491845,27.8884329 96.9781635,27.5027682 L96.95561,27.4841182 C96.4793843,27.0934223 95.789768,27.0909935 95.3196144,27.4898433 C93.8571073,28.7320202 92.1838117,30.7601863 91.0422581,32.6550265 C91.1957953,31.2025817 91.4967977,28.3792316 91.4967977,28.3792316 C91.4967977,28.3792316 90.8089162,27.3566042 89.3628904,27.0216849 C89.2093532,26.9862065 89.0610206,27.0981065 89.0454066,27.2548533 C88.8510996,29.2373052 88.4173787,38.1926026 88.4564135,38.2295556 C88.9447834,39.1860839 90.4246394,39.1295267 90.4246394,39.1295267 C90.722172,38.1619819 91.0639441,37.2058006 91.4239325,36.2600286 C92.0337442,34.6584705 92.6782536,32.9081461 93.6992328,31.5147741 C93.7677607,31.4211771 93.8250119,31.3265392 93.9100212,31.2561029 C93.7304607,32.1824441 93.4945165,33.0398238 93.4910467,34.0025109 C93.4867095,35.0003294 93.6341747,35.9991021 93.9334422,36.9512931 C94.1719887,37.708917 94.7028632,39.1357723 95.6856749,39.1395982 C97.2314565,39.1456611 99.0973242,36.1603595 99.3896522,35.6755462 C99.4139405,35.6364246 99.4035312,35.5881948 99.3679661,35.5592223" id="Fill-19" fill="#FFFFFE"></path>
            </g>
        </g>
    </g>
</svg>